# xmcd
#
# Track frame offsets:
#	150
#	38497
#	88816
#	101911
#	134435
#	161552
#	199409
#
# Disc length: 2703 seconds
#
# Revision: 0
# Processed by: cddbd v1.5.2PL0 Copyright (c) Steve Scherf et al.
# Submitted via: audiograbber 1.83.01
#
DISCID=5e0a8d07
DTITLE=Grateful Dead - 71-01-24 Seattle Centre Arena, Seattle WA
DYEAR=1971
DGENRE=Rock
TTITLE0=Hard to Handle
TTITLE1=Turn On Your Lovelight
TTITLE2=Not Fade Away
TTITLE3=Goin' Down the Road Feeling Bad
TTITLE4=Turn On Your Lovelight
TTITLE5=Drums
TTITLE6=Good Lovin'
EXTD=Band/Artist: Grateful Dead\nDate: January 24th, 1971\nVenue: Seattle Cente
EXTD=r Arena\nLocation: Seattle, WA
EXTT0=
EXTT1=
EXTT2=
EXTT3=
EXTT4=
EXTT5=
EXTT6=
PLAYORDER=
